# xmcd CD database file
#
# Track frame offsets:
#	150
#	23722
#	44640
#	66083
#	80604
#	97233
#	117536
#	132049
#	148202
#	171559
#
# Disc length: 2581 seconds
#
# Revision: 0
# Processed by: cddbd v1.5.2PL0 Copyright (c) Steve Scherf et al.
# Submitted via: CDex 1.51
#
DISCID=990a130a
DTITLE=Maria Muldaur - Transblucency
DYEAR=1986
DGENRE=Blues
TTITLE0=Massachusetts
TTITLE1=Rio De Janeiro Blues
TTITLE2=You've Changed
TTITLE3=Blizzard Of Lies
TTITLE4=Lazy Afternoon
TTITLE5=Wheelers And Dealers
TTITLE6=How Can You Face Me
TTITLE7=Transblucency
TTITLE8=Looking Back
TTITLE9=Where
EXTD=YEAR: 1986
EXTT0=
EXTT1=
EXTT2=
EXTT3=
EXTT4=
EXTT5=
EXTT6=
EXTT7=
EXTT8=
EXTT9=
PLAYORDER=
